# xmcd
#
# Track frame offsets:
#	150
#	8176
#	27074
#	52233
#	77650
#	80721
#	98629
#	131705
#	150115
#	158255
#	173830
#	195925
#	214564
#	232136
#	255900
#	285210
#	309799
#
# Disc length: 4220 seconds
#
# Revision: 0
# Processed by: cddbd v1.5.1PL2 Copyright (c) Steve Scherf et al.
# Submitted via: dBpowerAMP V4.0
#
DISCID=bd107a11
DTITLE=Low End Records - Survival of the Fittest
DYEAR=1999
DGENRE=Gangsta
TTITLE0=Intro
TTITLE1=Aint' No Peace
TTITLE2=Who U Wit?
TTITLE3=My C.I.T.Y(G.I. Anthem)
TTITLE4=I need that(Skit)
TTITLE5=Ultimate Lick
TTITLE6=Survival of the Fittest
TTITLE7=Kill Shit 2
TTITLE8=Hellrazor(commerical)
TTITLE9=My Niggaz
TTITLE10=Tha Power
TTITLE11=Where U At?
TTITLE12=Get Money
TTITLE13=Real Nigga Shit
TTITLE14=Time 2 Ride
TTITLE15=Who's Loving Who?
TTITLE16=Outro
EXTD=classic g.i compilation
EXTT0=
EXTT1=
EXTT2=
EXTT3=
EXTT4=
EXTT5=
EXTT6=
EXTT7=
EXTT8=
EXTT9=
EXTT10=
EXTT11=
EXTT12=
EXTT13=
EXTT14=
EXTT15=
EXTT16=
PLAYORDER=
